<svg xmlns="http://www.w3.org/2000/svg" width="128" height="128" viewBox="0 0 128 128" role="img" aria-label="Aerospace Engineering icon">

  <defs>
    <linearGradient id="subject-4-main" x1="19" y1="14" x2="109" y2="112" gradientUnits="userSpaceOnUse">
      <stop stop-color="#38bdf8"/>
      <stop offset=".55" stop-color="#6366f1"/>
      <stop offset="1" stop-color="#f97316"/>
    </linearGradient>
    <linearGradient id="subject-4-warm" x1="24" y1="23" x2="102" y2="105" gradientUnits="userSpaceOnUse">
      <stop stop-color="#fff7ed"/>
      <stop offset=".55" stop-color="#facc15"/>
      <stop offset="1" stop-color="#f97316"/>
    </linearGradient>
    <filter id="subject-4-shadow" x="-28" y="-24" width="184" height="184" color-interpolation-filters="sRGB">
      <feDropShadow dx="0" dy="12" stdDeviation="9" flood-color="#020617" flood-opacity=".26"/>
    </filter>
  </defs>

  <ellipse cx="64" cy="105" rx="38" ry="8" fill="#020617" opacity=".16"/>
  <path d="M31 108c16 8 50 8 66 0" fill="none" stroke="url(#subject-4-main)" stroke-width="5.5" stroke-linecap="round" opacity=".78"/>
<g filter="url(#subject-4-shadow)"><circle cx="64" cy="64" r="18" fill="#f8fafc"/><path d="M64 18v18M64 92v18M18 64h18M92 64h18M33 33l13 13M82 82l13 13M95 33L82 46M46 82L33 95" stroke="url(#subject-4-main)" stroke-width="10" stroke-linecap="round"/><circle cx="64" cy="64" r="35" fill="none" stroke="url(#subject-4-warm)" stroke-width="10" stroke-dasharray="17 10"/></g>
</svg>
