<svg xmlns="http://www.w3.org/2000/svg" width="128" height="128" viewBox="0 0 128 128" role="img" aria-label="Applied Mathematics icon">

  <defs>
    <linearGradient id="subject-16-main" x1="19" y1="14" x2="109" y2="112" gradientUnits="userSpaceOnUse">
      <stop stop-color="#22d3ee"/>
      <stop offset=".55" stop-color="#8b5cf6"/>
      <stop offset="1" stop-color="#f59e0b"/>
    </linearGradient>
    <linearGradient id="subject-16-warm" x1="24" y1="23" x2="102" y2="105" gradientUnits="userSpaceOnUse">
      <stop stop-color="#fff7ed"/>
      <stop offset=".55" stop-color="#facc15"/>
      <stop offset="1" stop-color="#f97316"/>
    </linearGradient>
    <filter id="subject-16-shadow" x="-28" y="-24" width="184" height="184" color-interpolation-filters="sRGB">
      <feDropShadow dx="0" dy="12" stdDeviation="9" flood-color="#020617" flood-opacity=".26"/>
    </filter>
  </defs>

  <ellipse cx="64" cy="105" rx="38" ry="8" fill="#020617" opacity=".16"/>
  <path d="M31 108c16 8 50 8 66 0" fill="none" stroke="url(#subject-16-main)" stroke-width="5.5" stroke-linecap="round" opacity=".78"/>
<g filter="url(#subject-16-shadow)"><path d="M53 19h22M60 19v31L32 96c-5 8 1 18 10 18h42c9 0 15-10 10-18L68 50V19" fill="none" stroke="url(#subject-16-main)" stroke-width="9" stroke-linecap="round" stroke-linejoin="round"/><path d="M42 93h45L76 73H54L42 93z" fill="url(#subject-16-main)" opacity=".86"/><circle cx="55" cy="83" r="4.5" fill="#f8fafc"/><circle cx="74" cy="87" r="3.5" fill="#f8fafc"/></g>
</svg>
