<svg xmlns="http://www.w3.org/2000/svg" width="128" height="128" viewBox="0 0 128 128" role="img" aria-label="Case Study icon">

  <defs>
    <linearGradient id="subject-40-main" x1="19" y1="14" x2="109" y2="112" gradientUnits="userSpaceOnUse">
      <stop stop-color="#facc15"/>
      <stop offset=".55" stop-color="#f97316"/>
      <stop offset="1" stop-color="#38bdf8"/>
    </linearGradient>
    <linearGradient id="subject-40-warm" x1="24" y1="23" x2="102" y2="105" gradientUnits="userSpaceOnUse">
      <stop stop-color="#fff7ed"/>
      <stop offset=".55" stop-color="#facc15"/>
      <stop offset="1" stop-color="#f97316"/>
    </linearGradient>
    <filter id="subject-40-shadow" x="-28" y="-24" width="184" height="184" color-interpolation-filters="sRGB">
      <feDropShadow dx="0" dy="12" stdDeviation="9" flood-color="#020617" flood-opacity=".26"/>
    </filter>
  </defs>

  <ellipse cx="64" cy="105" rx="38" ry="8" fill="#020617" opacity=".16"/>
  <path d="M31 108c16 8 50 8 66 0" fill="none" stroke="url(#subject-40-main)" stroke-width="5.5" stroke-linecap="round" opacity=".78"/>
<g filter="url(#subject-40-shadow)"><path d="M23 38c0-8 6-14 14-14h24l9 12h31c8 0 14 6 14 14v47c0 8-6 14-14 14H37c-8 0-14-6-14-14V38z" fill="url(#subject-40-warm)"/><path d="M23 55h92" stroke="#fff7ed" stroke-width="8" opacity=".72"/><path d="M57 72h17v25l-9-5-8 5z" fill="#ef4444"/></g>
</svg>
