<svg xmlns="http://www.w3.org/2000/svg" width="128" height="128" viewBox="0 0 128 128" role="img" aria-label="Cds icon">

  <defs>
    <linearGradient id="subject-46-main" x1="19" y1="14" x2="109" y2="112" gradientUnits="userSpaceOnUse">
      <stop stop-color="#60a5fa"/>
      <stop offset=".55" stop-color="#8b5cf6"/>
      <stop offset="1" stop-color="#22c55e"/>
    </linearGradient>
    <linearGradient id="subject-46-warm" x1="24" y1="23" x2="102" y2="105" gradientUnits="userSpaceOnUse">
      <stop stop-color="#fff7ed"/>
      <stop offset=".55" stop-color="#facc15"/>
      <stop offset="1" stop-color="#f97316"/>
    </linearGradient>
    <filter id="subject-46-shadow" x="-28" y="-24" width="184" height="184" color-interpolation-filters="sRGB">
      <feDropShadow dx="0" dy="12" stdDeviation="9" flood-color="#020617" flood-opacity=".26"/>
    </filter>
  </defs>

  <ellipse cx="64" cy="105" rx="38" ry="8" fill="#020617" opacity=".16"/>
  <path d="M31 108c16 8 50 8 66 0" fill="none" stroke="url(#subject-46-main)" stroke-width="5.5" stroke-linecap="round" opacity=".78"/>
<g filter="url(#subject-46-shadow)"><path d="M64 16l39 14v29c0 27-16 45-39 57-23-12-39-30-39-57V30l39-14z" fill="url(#subject-46-main)"/><path d="M64 29v72c16-10 27-23 27-41V39L64 29z" fill="#dbeafe" opacity=".66"/><path d="M44 63l14 14 29-33" fill="none" stroke="#f8fafc" stroke-width="9" stroke-linecap="round" stroke-linejoin="round"/></g>
</svg>
