<svg xmlns="http://www.w3.org/2000/svg" width="128" height="128" viewBox="0 0 128 128" role="img" aria-label="Fine Art icon">

  <defs>
    <linearGradient id="subject-115-main" x1="19" y1="14" x2="109" y2="112" gradientUnits="userSpaceOnUse">
      <stop stop-color="#f472b6"/>
      <stop offset=".55" stop-color="#8b5cf6"/>
      <stop offset="1" stop-color="#f59e0b"/>
    </linearGradient>
    <linearGradient id="subject-115-warm" x1="24" y1="23" x2="102" y2="105" gradientUnits="userSpaceOnUse">
      <stop stop-color="#fff7ed"/>
      <stop offset=".55" stop-color="#facc15"/>
      <stop offset="1" stop-color="#f97316"/>
    </linearGradient>
    <filter id="subject-115-shadow" x="-28" y="-24" width="184" height="184" color-interpolation-filters="sRGB">
      <feDropShadow dx="0" dy="12" stdDeviation="9" flood-color="#020617" flood-opacity=".26"/>
    </filter>
  </defs>

  <ellipse cx="64" cy="105" rx="38" ry="8" fill="#020617" opacity=".16"/>
  <path d="M31 108c16 8 50 8 66 0" fill="none" stroke="url(#subject-115-main)" stroke-width="5.5" stroke-linecap="round" opacity=".78"/>
<g filter="url(#subject-115-shadow)"><path d="M29 88c9-32 37-59 67-66 5-1 10 4 9 9-7 30-34 58-66 67-7 2-13-3-10-10z" fill="url(#subject-115-main)"/><path d="M47 81l20-20M61 94l33-33" stroke="#f8fafc" stroke-width="7" stroke-linecap="round"/><circle cx="93" cy="31" r="8" fill="#f8fafc"/></g>
</svg>
