<svg xmlns="http://www.w3.org/2000/svg" width="128" height="128" viewBox="0 0 128 128" role="img" aria-label="Notes icon">

  <defs>
    <linearGradient id="subject-210-main" x1="19" y1="14" x2="109" y2="112" gradientUnits="userSpaceOnUse">
      <stop stop-color="#38bdf8"/>
      <stop offset=".55" stop-color="#22c55e"/>
      <stop offset="1" stop-color="#0ea5e9"/>
    </linearGradient>
    <linearGradient id="subject-210-warm" x1="24" y1="23" x2="102" y2="105" gradientUnits="userSpaceOnUse">
      <stop stop-color="#fff7ed"/>
      <stop offset=".55" stop-color="#facc15"/>
      <stop offset="1" stop-color="#f97316"/>
    </linearGradient>
    <filter id="subject-210-shadow" x="-28" y="-24" width="184" height="184" color-interpolation-filters="sRGB">
      <feDropShadow dx="0" dy="12" stdDeviation="9" flood-color="#020617" flood-opacity=".26"/>
    </filter>
  </defs>

  <ellipse cx="64" cy="105" rx="38" ry="8" fill="#020617" opacity=".16"/>
  <path d="M31 108c16 8 50 8 66 0" fill="none" stroke="url(#subject-210-main)" stroke-width="5.5" stroke-linecap="round" opacity=".78"/>
<g filter="url(#subject-210-shadow)"><path d="M30 30c0-6 5-11 11-11h26c8 0 14 6 14 14v67c0 3-2 5-5 5H41c-6 0-11-5-11-11V30z" fill="url(#subject-210-main)"/><path d="M80 32c0-7 6-13 13-13h10c6 0 11 5 11 11v69c0 4-4 6-7 4l-14-7-13 7V32z" fill="#f8fafc" opacity=".94"/><path d="M44 48h28M44 60h24M44 72h19" stroke="#f8fafc" stroke-width="6" stroke-linecap="round"/></g>
</svg>
