<svg xmlns="http://www.w3.org/2000/svg" width="128" height="128" viewBox="0 0 128 128" role="img" aria-label="Toefl icon">

  <defs>
    <linearGradient id="subject-289-main" x1="19" y1="14" x2="109" y2="112" gradientUnits="userSpaceOnUse">
      <stop stop-color="#f472b6"/>
      <stop offset=".55" stop-color="#38bdf8"/>
      <stop offset="1" stop-color="#a78bfa"/>
    </linearGradient>
    <linearGradient id="subject-289-warm" x1="24" y1="23" x2="102" y2="105" gradientUnits="userSpaceOnUse">
      <stop stop-color="#fff7ed"/>
      <stop offset=".55" stop-color="#facc15"/>
      <stop offset="1" stop-color="#f97316"/>
    </linearGradient>
    <filter id="subject-289-shadow" x="-28" y="-24" width="184" height="184" color-interpolation-filters="sRGB">
      <feDropShadow dx="0" dy="12" stdDeviation="9" flood-color="#020617" flood-opacity=".26"/>
    </filter>
  </defs>

  <ellipse cx="64" cy="105" rx="38" ry="8" fill="#020617" opacity=".16"/>
  <path d="M31 108c16 8 50 8 66 0" fill="none" stroke="url(#subject-289-main)" stroke-width="5.5" stroke-linecap="round" opacity=".78"/>
<g filter="url(#subject-289-shadow)"><circle cx="64" cy="61" r="40" fill="url(#subject-289-main)"/><path d="M25 61h78M64 21c13 14 19 27 19 40s-6 27-19 40M64 21C51 35 45 48 45 61s6 27 19 40" fill="none" stroke="#f8fafc" stroke-width="6" stroke-linecap="round" opacity=".9"/><path d="M39 36c16 8 34 8 50 0M39 87c16-8 34-8 50 0" fill="none" stroke="#f8fafc" stroke-width="5" stroke-linecap="round" opacity=".72"/></g>
</svg>
