<svg width="128" height="128" viewBox="0 0 96 96" fill="none" xmlns="http://www.w3.org/2000/svg">
  <defs>
    <linearGradient id="bookmarkGradient" x1="24" y1="10" x2="72" y2="88" gradientUnits="userSpaceOnUse">
      <stop stop-color="#0F172A"/>
      <stop offset="0.4" stop-color="#1E293B"/>
      <stop offset="1" stop-color="#020617"/>
    </linearGradient>
    <linearGradient id="bookmarkHighlight" x1="30" y1="18" x2="54" y2="52" gradientUnits="userSpaceOnUse">
      <stop stop-color="#F8FAFC" stop-opacity="0.96"/>
      <stop offset="1" stop-color="#D6E0FF" stop-opacity="0.38"/>
    </linearGradient>
    <linearGradient id="bookmarkAccent" x1="32" y1="26" x2="66" y2="74" gradientUnits="userSpaceOnUse">
      <stop stop-color="#F472B6"/>
      <stop offset="0.45" stop-color="#FB7185"/>
      <stop offset="1" stop-color="#FB923C"/>
    </linearGradient>
    <filter id="bookmarkShadow" x="-25%" y="-20%" width="150%" height="150%" filterUnits="userSpaceOnUse" color-interpolation-filters="sRGB">
      <feDropShadow dx="0" dy="9" stdDeviation="6" flood-color="#020617" flood-opacity="0.24"/>
    </filter>
  </defs>

  <g filter="url(#bookmarkShadow)">
    <path d="M28 16H68C70.2091 16 72 17.7909 72 20V78L48 66L24 78V20C24 17.7909 25.7909 16 28 16Z" fill="url(#bookmarkGradient)"/>
    <path d="M28 18H68C69.1046 18 70 18.8954 70 20V74.4L48 63.7L26 74.4V20C26 18.8954 26.8954 18 28 18Z" fill="url(#bookmarkAccent)" opacity="0.9"/>
    <path d="M28 18H68C69.1046 18 70 18.8954 70 20V74.4L48 63.7L26 74.4V20C26 18.8954 26.8954 18 28 18Z" fill="url(#bookmarkHighlight)" opacity="0.48"/>
    <path d="M43 28H53" stroke="#FFF8F1" stroke-width="3.2" stroke-linecap="round" opacity="0.9"/>
    <path d="M37 38H59" stroke="#FFF8F1" stroke-width="3.2" stroke-linecap="round" opacity="0.74"/>
    <path d="M37 46H53" stroke="#FFF8F1" stroke-width="3.2" stroke-linecap="round" opacity="0.7"/>
    <circle cx="60" cy="26" r="5" fill="#FFF7ED" opacity="0.84"/>
    <circle cx="60" cy="26" r="2.8" fill="#FFFFFF"/>
  </g>
</svg>
