<svg xmlns="http://www.w3.org/2000/svg" viewBox="0 0 800 600" width="100%" height="100%">
  <defs>
    <path id="sparkle" d="M 0,-15 Q 0,0 15,0 Q 0,0 0,15 Q 0,0 -15,0 Q 0,0 0,-15 Z" fill="#FF4B72" />
  </defs>

  <rect width="100%" height="100%" fill="transparent" />

  <use href="#sparkle" x="150" y="280" transform="translate(150, 280) scale(0.8) translate(-150, -280)" />
  <use href="#sparkle" x="170" y="380" transform="translate(170, 380) scale(1.2) translate(-170, -380)" />
  <use href="#sparkle" x="220" y="420" transform="translate(220, 420) scale(0.6) translate(-220, -420)" />
  
  <use href="#sparkle" x="650" y="160" transform="translate(650, 160) scale(0.8) translate(-650, -160)" />
  <use href="#sparkle" x="690" y="210" transform="translate(690, 210) scale(1.3) translate(-690, -210)" />
  <use href="#sparkle" x="660" y="280" transform="translate(660, 280) scale(0.7) translate(-660, -280)" />

  <g transform="translate(160, 100)" stroke="#1A0A11" stroke-width="7" stroke-linejoin="round" stroke-linecap="round">
    
    <path d="M 220, 360 C 230, 440 240, 470 250, 470 C 270, 470 290, 460 290, 440 C 290, 410 280, 360 280, 360" fill="#FF4B72"/>
    
    <path d="M 270, 350 C 350, 380 430, 360 400, 280 C 390, 250 320, 250 270, 280" fill="#FF4B72"/>

    <path d="M 100, 280
             C 20, 280 20, 180 80, 140
             C 70, 80 150, 40 210, 60
             C 240, 10 340, 0 390, 50
             C 450, 40 510, 90 490, 160
             C 540, 180 540, 280 470, 310
             C 490, 370 410, 410 340, 370
             C 280, 410 180, 390 140, 330
             C 90, 340 80, 290 100, 280 Z" fill="#FF4B72"/>

    <g fill="none">
      <path d="M 130, 170 C 160, 140 200, 160 210, 210" />
      <path d="M 210, 210 C 240, 240 290, 190 320, 130" />
      <path d="M 320, 130 C 350, 110 380, 150 370, 200" />
      <path d="M 370, 200 C 400, 220 450, 190 470, 240" />
      
      <path d="M 100, 250 C 160, 260 200, 290 260, 290" />
      <path d="M 260, 290 C 310, 290 330, 250 390, 270" />
      <path d="M 390, 270 C 430, 280 460, 320 430, 350" />

      <path d="M 160, 310 C 180, 350 230, 350 260, 330" />
      <path d="M 260, 330 C 290, 310 330, 360 370, 340" />

      <path d="M 280, 110 C 290, 70 330, 70 350, 100" />
      <path d="M 160, 100 C 180, 70 210, 70 220, 100" />
    </g>

    <g stroke="#FFFFFF" stroke-width="12" fill="none" opacity="0.9">
      <path d="M 95, 155 C 105, 140 120, 135 130, 145" />
      <path d="M 230, 45 C 260, 35 290, 35 315, 50" />
      <path d="M 470, 150 C 485, 130 495, 120 500, 130" stroke-width="10"/>
      <path d="M 475, 250 C 490, 255 500, 265 515, 290" stroke-width="10"/>
    </g>
    
    <ellipse cx="205" cy="80" rx="8" ry="5" fill="#FFFFFF" stroke="none" transform="rotate(-20 205 80)" />
    <ellipse cx="505" cy="190" rx="6" ry="12" fill="#FFFFFF" stroke="none" transform="rotate(15 505 190)" />

  </g>
</svg>
