<svg width="128" height="128" viewBox="0 0 128 128" fill="none" xmlns="http://www.w3.org/2000/svg">
  <defs>
    <linearGradient id="cert" x1="22" y1="28" x2="104" y2="92" gradientUnits="userSpaceOnUse">
      <stop stop-color="#FFF7D6"/>
      <stop offset="1" stop-color="#FFFFFF"/>
    </linearGradient>
    <linearGradient id="seal" x1="72" y1="62" x2="103" y2="105" gradientUnits="userSpaceOnUse">
      <stop stop-color="#FBBF24"/>
      <stop offset="1" stop-color="#F97316"/>
    </linearGradient>
    <filter id="shadow" x="8" y="12" width="112" height="104" filterUnits="userSpaceOnUse" color-interpolation-filters="sRGB">
      <feDropShadow dx="0" dy="10" stdDeviation="7" flood-color="#111827" flood-opacity="0.22"/>
    </filter>
  </defs>
  <g filter="url(#shadow)">
    <path d="M18 38C18 31.4 23.4 26 30 26H99C105.6 26 111 31.4 111 38V84C111 90.6 105.6 96 99 96H30C23.4 96 18 90.6 18 84V38Z" fill="url(#cert)"/>
    <path d="M24 37H105" stroke="#F59E0B" stroke-width="5" stroke-linecap="round"/>
    <path d="M39 55H82" stroke="#D6A447" stroke-width="4" stroke-linecap="round"/>
    <path d="M39 68H72" stroke="#D6A447" stroke-width="4" stroke-linecap="round"/>
    <circle cx="86" cy="83" r="17" fill="url(#seal)"/>
    <path d="M86 73L89 80L96 80.5L91 85L92.5 92L86 88L79.5 92L81 85L76 80.5L83 80L86 73Z" fill="#FDE68A"/>
    <path d="M78 96L73 115L86 108L99 115L94 96" fill="#EF4444"/>
  </g>
</svg>
