<svg width="128" height="128" viewBox="0 0 96 96" fill="none" xmlns="http://www.w3.org/2000/svg">
  <defs>
    <linearGradient id="chartPanelGradient" x1="20" y1="16" x2="76" y2="82" gradientUnits="userSpaceOnUse">
      <stop stop-color="#07111F"/>
      <stop offset="0.25" stop-color="#0F1B31"/>
      <stop offset="1" stop-color="#030712"/>
    </linearGradient>
    <linearGradient id="chartBar1" x1="32" y1="52" x2="40" y2="68" gradientUnits="userSpaceOnUse">
      <stop stop-color="#2DD4BF"/>
      <stop offset="1" stop-color="#0F766E"/>
    </linearGradient>
    <linearGradient id="chartBar2" x1="44" y1="46" x2="52" y2="70" gradientUnits="userSpaceOnUse">
      <stop stop-color="#22C55E"/>
      <stop offset="1" stop-color="#15803D"/>
    </linearGradient>
    <linearGradient id="chartBar3" x1="56" y1="36" x2="64" y2="72" gradientUnits="userSpaceOnUse">
      <stop stop-color="#60A5FA"/>
      <stop offset="1" stop-color="#2563EB"/>
    </linearGradient>
    <linearGradient id="chartAccent" x1="32" y1="24" x2="66" y2="38" gradientUnits="userSpaceOnUse">
      <stop stop-color="#F8FAFC"/>
      <stop offset="1" stop-color="#D5E6FF"/>
    </linearGradient>
    <filter id="chartShadow" x="-25%" y="-20%" width="150%" height="150%" filterUnits="userSpaceOnUse" color-interpolation-filters="sRGB">
      <feDropShadow dx="0" dy="10" stdDeviation="7" flood-color="#020617" flood-opacity="0.28"/>
    </filter>
  </defs>

  <g filter="url(#chartShadow)">
    <rect x="20" y="18" width="56" height="60" rx="14" fill="url(#chartPanelGradient)"/>
    <rect x="20" y="18" width="56" height="60" rx="14" fill="url(#chartAccent)" opacity="0.06"/>

    <rect x="30" y="28" width="30" height="2.5" rx="1.25" fill="#E2E8F0" opacity="0.58"/>
    <rect x="32" y="52" width="8" height="14" rx="4" fill="url(#chartBar1)"/>
    <rect x="44" y="44" width="8" height="22" rx="4" fill="url(#chartBar2)"/>
    <rect x="56" y="34" width="8" height="32" rx="4" fill="url(#chartBar3)"/>

    <circle cx="70" cy="26" r="5" fill="#FDE68A"/>
    <circle cx="70" cy="26" r="3" fill="#FFF8D6"/>
    <path d="M28 30H58" stroke="#CFFAFE" stroke-width="2.5" stroke-linecap="round" opacity="0.7"/>
    <path d="M30 62H62" stroke="#F8FAFC" stroke-width="2" stroke-linecap="round" opacity="0.16"/>
  </g>
</svg>
