<svg width="128" height="128" viewBox="0 0 96 96" fill="none" xmlns="http://www.w3.org/2000/svg">
  <defs>
    <linearGradient id="checkBody" x1="18" y1="12" x2="68" y2="78" gradientUnits="userSpaceOnUse">
      <stop stop-color="#302D8A"/>
      <stop offset="0.4" stop-color="#4F46E5"/>
      <stop offset="1" stop-color="#1E1B4B"/>
    </linearGradient>
    <linearGradient id="checkPaper" x1="24" y1="18" x2="64" y2="70" gradientUnits="userSpaceOnUse">
      <stop stop-color="#FFFFFF"/>
      <stop offset="1" stop-color="#E7EBFF"/>
    </linearGradient>
    <linearGradient id="checkTop" x1="30" y1="8" x2="60" y2="20" gradientUnits="userSpaceOnUse">
      <stop stop-color="#FF8099"/>
      <stop offset="1" stop-color="#FB7185"/>
    </linearGradient>
    <linearGradient id="checkPencil" x1="44" y1="20" x2="68" y2="58" gradientUnits="userSpaceOnUse">
      <stop stop-color="#FDE68A"/>
      <stop offset="0.55" stop-color="#FBBF24"/>
      <stop offset="1" stop-color="#D97706"/>
    </linearGradient>
    <filter id="checkShadow" x="-25%" y="-20%" width="150%" height="150%" filterUnits="userSpaceOnUse" color-interpolation-filters="sRGB">
      <feDropShadow dx="0" dy="10" stdDeviation="7" flood-color="#020617" flood-opacity="0.24"/>
    </filter>
  </defs>

  <rect width="96" height="96" rx="16" fill="#F8FAFF"/>

  <g filter="url(#checkShadow)">
    <rect x="18" y="16" width="44" height="56" rx="6" fill="url(#checkBody)"/>
    <rect x="22" y="20" width="36" height="48" rx="5" fill="url(#checkPaper)"/>
    <rect x="34" y="8" width="18" height="11" rx="4" fill="url(#checkTop)"/>
    <circle cx="43" cy="14" r="2.2" fill="#FFD6DE"/>

    <circle cx="29" cy="30" r="3.3" fill="#22C55E"/>
    <path d="M27 30L28.7 31.8L32.2 28" stroke="#F8FAFC" stroke-width="1.5" stroke-linecap="round" stroke-linejoin="round"/>
    <rect x="35" y="28" width="15" height="2" rx="1" fill="#B6C0FF"/>
    <rect x="35" y="34" width="11" height="2" rx="1" fill="#DDE4FF" opacity="0.88"/>

    <circle cx="29" cy="43" r="3.3" fill="#22C55E"/>
    <path d="M27 43L28.7 44.8L32.2 41" stroke="#F8FAFC" stroke-width="1.5" stroke-linecap="round" stroke-linejoin="round"/>
    <rect x="35" y="41" width="15" height="2" rx="1" fill="#B6C0FF"/>
    <rect x="35" y="47" width="11" height="2" rx="1" fill="#DDE4FF" opacity="0.88"/>

    <circle cx="29" cy="56" r="3.3" fill="#22C55E"/>
    <path d="M27 56L28.7 57.8L32.2 54" stroke="#F8FAFC" stroke-width="1.5" stroke-linecap="round" stroke-linejoin="round"/>
    <rect x="35" y="54" width="15" height="2" rx="1" fill="#B6C0FF"/>
    <rect x="35" y="60" width="11" height="2" rx="1" fill="#DDE4FF" opacity="0.88"/>
  </g>

  <g transform="translate(52 20) rotate(20)">
    <rect x="0" y="0" width="10" height="28" rx="4" fill="url(#checkPencil)"/>
    <rect x="0" y="0" width="10" height="6" rx="3" fill="#FF6B8D"/>
    <polygon points="0,26 5,32 10,26" fill="#FFF3CF"/>
    <polygon points="2,28 5,32 8,28" fill="#1F2937" opacity="0.78"/>
  </g>

  <circle cx="62" cy="30" r="5" fill="#FDE68A"/>
  <circle cx="62" cy="30" r="3.4" fill="#FFF8D8"/>
</svg>
