<svg width="128" height="128" viewBox="0 0 96 96" fill="none" xmlns="http://www.w3.org/2000/svg">
  <defs>
    <linearGradient id="clipBody" x1="18" y1="12" x2="70" y2="78" gradientUnits="userSpaceOnUse">
      <stop stop-color="#312E81"/>
      <stop offset="0.4" stop-color="#4338CA"/>
      <stop offset="1" stop-color="#1E1B4B"/>
    </linearGradient>
    <linearGradient id="clipPaper" x1="24" y1="20" x2="64" y2="70" gradientUnits="userSpaceOnUse">
      <stop stop-color="#FFFFFF"/>
      <stop offset="1" stop-color="#E5EAFD"/>
    </linearGradient>
    <linearGradient id="clipTop" x1="28" y1="8" x2="62" y2="20" gradientUnits="userSpaceOnUse">
      <stop stop-color="#FF7A98"/>
      <stop offset="1" stop-color="#FB7185"/>
    </linearGradient>
    <linearGradient id="clipInner" x1="30" y1="26" x2="58" y2="58" gradientUnits="userSpaceOnUse">
      <stop stop-color="#F8FAFF"/>
      <stop offset="1" stop-color="#E6E9FF"/>
    </linearGradient>
    <filter id="clipShadow" x="-25%" y="-20%" width="150%" height="150%" filterUnits="userSpaceOnUse" color-interpolation-filters="sRGB">
      <feDropShadow dx="0" dy="9" stdDeviation="6" flood-color="#020617" flood-opacity="0.24"/>
    </filter>
  </defs>

  <rect width="96" height="96" rx="16" fill="#F8FAFF"/>

  <g filter="url(#clipShadow)">
    <rect x="20" y="16" width="44" height="56" rx="6" fill="url(#clipBody)"/>
    <rect x="24" y="20" width="36" height="48" rx="5" fill="url(#clipPaper)"/>
    <rect x="34" y="8" width="20" height="12" rx="4" fill="url(#clipTop)"/>
    <circle cx="44" cy="14" r="2.2" fill="#FFD1DA"/>

    <rect x="30" y="28" width="20" height="2" rx="1" fill="url(#clipInner)" opacity="0.78"/>
    <rect x="30" y="34" width="16" height="2" rx="1" fill="#D4DCFF" opacity="0.9"/>
    <rect x="30" y="40" width="18" height="2" rx="1" fill="#DCE3FF" opacity="0.8"/>
    <rect x="30" y="46" width="14" height="2" rx="1" fill="#D4DCFF" opacity="0.8"/>
    <rect x="30" y="52" width="17" height="2" rx="1" fill="#D6DEFF" opacity="0.72"/>
    <rect x="52" y="28" width="8" height="26" rx="4" fill="#C7D3FF" opacity="0.84"/>
  </g>
</svg>
