<svg width="128" height="128" viewBox="0 0 96 96" fill="none" xmlns="http://www.w3.org/2000/svg">
  <defs>
    <linearGradient id="examGradient" x1="20" y1="12" x2="76" y2="84" gradientUnits="userSpaceOnUse">
      <stop stop-color="#0F766E"/>
      <stop offset="0.5" stop-color="#0891B2"/>
      <stop offset="1" stop-color="#4338CA"/>
    </linearGradient>
    <linearGradient id="examPanel" x1="26" y1="26" x2="66" y2="72" gradientUnits="userSpaceOnUse">
      <stop stop-color="#F8FAFC"/>
      <stop offset="1" stop-color="#D8E5FF"/>
    </linearGradient>
    <filter id="examShadow" x="-25%" y="-20%" width="150%" height="150%" filterUnits="userSpaceOnUse" color-interpolation-filters="sRGB">
      <feDropShadow dx="0" dy="9" stdDeviation="7" flood-color="#020617" flood-opacity="0.24"/>
    </filter>
  </defs>

  <g filter="url(#examShadow)">
    <rect x="22" y="18" width="52" height="60" rx="12" fill="#071127" opacity="0.7"/>
    <rect x="22" y="18" width="52" height="60" rx="12" fill="url(#examGradient)" opacity="0.92"/>
    <rect x="26" y="22" width="44" height="52" rx="10" fill="url(#examPanel)" opacity="0.95"/>

    <rect x="32" y="32" width="32" height="4" rx="2" fill="#0F172A" opacity="0.82"/>
    <rect x="32" y="42" width="24" height="4" rx="2" fill="#0F172A" opacity="0.6"/>
    <rect x="32" y="52" width="28" height="4" rx="2" fill="#0F172A" opacity="0.62"/>
    <rect x="32" y="62" width="20" height="4" rx="2" fill="#0F172A" opacity="0.6"/>

    <path d="M60 34L68 42L60 50" stroke="#1D4ED8" stroke-width="4" stroke-linecap="round" stroke-linejoin="round"/>
    <path d="M42 22V14" stroke="#F8FAFC" stroke-width="3" stroke-linecap="round" opacity="0.72"/>
    <circle cx="70" cy="24" r="6" fill="#DBEAFE" opacity="0.88"/>
    <circle cx="70" cy="24" r="3.2" fill="#F8FAFC"/>
  </g>
</svg>
