<svg width="128" height="128" viewBox="0 0 128 128" fill="none" xmlns="http://www.w3.org/2000/svg">
  <defs>
    <linearGradient id="folderBack" x1="24" y1="28" x2="102" y2="104" gradientUnits="userSpaceOnUse">
      <stop stop-color="#FFCF36"/>
      <stop offset="1" stop-color="#FF8A00"/>
    </linearGradient>
    <linearGradient id="folderFront" x1="18" y1="48" x2="102" y2="112" gradientUnits="userSpaceOnUse">
      <stop stop-color="#FFE37A"/>
      <stop offset="0.52" stop-color="#FFB522"/>
      <stop offset="1" stop-color="#F97316"/>
    </linearGradient>
    <linearGradient id="paper" x1="48" y1="30" x2="82" y2="86" gradientUnits="userSpaceOnUse">
      <stop stop-color="#FFFFFF"/>
      <stop offset="1" stop-color="#DCEBFF"/>
    </linearGradient>
    <filter id="shadow" x="2" y="14" width="124" height="106" filterUnits="userSpaceOnUse" color-interpolation-filters="sRGB">
      <feDropShadow dx="0" dy="10" stdDeviation="7" flood-color="#0F172A" flood-opacity="0.24"/>
    </filter>
  </defs>
  <g filter="url(#shadow)">
    <path d="M18 43C18 35.8 23.8 30 31 30H52.4C56.1 30 59.7 31.6 62.2 34.4L67.3 40H96C103.7 40 110 46.3 110 54V91C110 98.7 103.7 105 96 105H32C24.3 105 18 98.7 18 91V43Z" fill="url(#folderBack)"/>
    <rect x="44" y="38" width="42" height="46" rx="8" fill="url(#paper)"/>
    <path d="M53 52H76" stroke="#2563EB" stroke-width="4" stroke-linecap="round"/>
    <path d="M53 64H78" stroke="#60A5FA" stroke-width="4" stroke-linecap="round"/>
    <path d="M53 76H70" stroke="#93C5FD" stroke-width="4" stroke-linecap="round"/>
    <path d="M14 58C14 50.8 19.8 45 27 45H101C108.2 45 114 50.8 114 58V91C114 99.8 106.8 107 98 107H30C21.2 107 14 99.8 14 91V58Z" fill="url(#folderFront)"/>
    <path d="M26 58H104" stroke="#FFF7C2" stroke-width="5" stroke-linecap="round" opacity="0.7"/>
    <rect x="58" y="73" width="18" height="27" rx="5" fill="#EF4444"/>
    <path d="M58 93L67 88L76 93V100H58V93Z" fill="#DC2626"/>
  </g>
</svg>
