<svg width="128" height="128" viewBox="0 0 128 128" fill="none" xmlns="http://www.w3.org/2000/svg">
  <defs>
    <linearGradient id="board" x1="22" y1="19" x2="90" y2="111" gradientUnits="userSpaceOnUse">
      <stop stop-color="#7C6BFF"/>
      <stop offset="1" stop-color="#4338CA"/>
    </linearGradient>
    <linearGradient id="paper" x1="34" y1="30" x2="82" y2="101" gradientUnits="userSpaceOnUse">
      <stop stop-color="#FFFFFF"/>
      <stop offset="1" stop-color="#EAF2FF"/>
    </linearGradient>
    <linearGradient id="pencil" x1="83" y1="55" x2="109" y2="87" gradientUnits="userSpaceOnUse">
      <stop stop-color="#FF5A5F"/>
      <stop offset="1" stop-color="#F59E0B"/>
    </linearGradient>
    <filter id="shadow" x="8" y="10" width="114" height="110" filterUnits="userSpaceOnUse" color-interpolation-filters="sRGB">
      <feDropShadow dx="0" dy="10" stdDeviation="7" flood-color="#111827" flood-opacity="0.24"/>
    </filter>
  </defs>
  <g filter="url(#shadow)">
    <rect x="20" y="24" width="76" height="88" rx="14" fill="url(#board)"/>
    <rect x="31" y="34" width="54" height="68" rx="8" fill="url(#paper)"/>
    <rect x="45" y="14" width="30" height="24" rx="8" fill="#FF3F5E"/>
    <path d="M44 31H78" stroke="#FF7A8B" stroke-width="5" stroke-linecap="round"/>
    <rect x="41" y="48" width="12" height="12" rx="3" fill="#22C55E"/>
    <rect x="41" y="65" width="12" height="12" rx="3" fill="#22C55E"/>
    <rect x="41" y="82" width="12" height="12" rx="3" fill="#22C55E"/>
    <path d="M59 53H75" stroke="#94A3B8" stroke-width="4" stroke-linecap="round"/>
    <path d="M59 70H74" stroke="#94A3B8" stroke-width="4" stroke-linecap="round"/>
    <path d="M59 87H71" stroke="#94A3B8" stroke-width="4" stroke-linecap="round"/>
    <path d="M88 69L104 53C108 49 115 56 111 60L95 76L84 80L88 69Z" fill="url(#pencil)"/>
    <path d="M84 80L80 88L88 84" fill="#1F2937"/>
    <circle cx="86" cy="43" r="12" fill="#FBBF24"/>
    <path d="M86 36V44" stroke="#78350F" stroke-width="4" stroke-linecap="round"/>
  </g>
</svg>
