<svg width="128" height="128" viewBox="0 0 96 96" fill="none" xmlns="http://www.w3.org/2000/svg">
  <defs>
    <linearGradient id="notebookGradient" x1="18" y1="12" x2="78" y2="84" gradientUnits="userSpaceOnUse">
      <stop stop-color="#FB7185"/>
      <stop offset="0.45" stop-color="#F59E0B"/>
      <stop offset="1" stop-color="#FB7185"/>
    </linearGradient>
    <linearGradient id="notebookPage" x1="28" y1="26" x2="64" y2="72" gradientUnits="userSpaceOnUse">
      <stop stop-color="#FFFDF8"/>
      <stop offset="1" stop-color="#FFF2D9"/>
    </linearGradient>
    <linearGradient id="notebookBinding" x1="62" y1="18" x2="69" y2="76" gradientUnits="userSpaceOnUse">
      <stop stop-color="#4F46E5"/>
      <stop offset="1" stop-color="#312E81"/>
    </linearGradient>
    <filter id="notebookShadow" x="-25%" y="-20%" width="150%" height="150%" filterUnits="userSpaceOnUse" color-interpolation-filters="sRGB">
      <feDropShadow dx="0" dy="9" stdDeviation="6" flood-color="#020617" flood-opacity="0.24"/>
    </filter>
  </defs>

  <g filter="url(#notebookShadow)">
    <rect x="24" y="18" width="48" height="60" rx="12" fill="#071127" opacity="0.78"/>
    <rect x="24" y="18" width="48" height="60" rx="12" fill="url(#notebookGradient)" opacity="0.92"/>
    <rect x="28" y="22" width="40" height="52" rx="9" fill="url(#notebookPage)" opacity="0.96"/>

    <rect x="34" y="32" width="28" height="4" rx="2" fill="#1F2937" opacity="0.84"/>
    <rect x="34" y="44" width="22" height="4" rx="2" fill="#1F2937" opacity="0.66"/>
    <rect x="34" y="56" width="18" height="4" rx="2" fill="#1F2937" opacity="0.58"/>

    <path d="M66 24V70" stroke="url(#notebookBinding)" stroke-width="4" stroke-linecap="round" opacity="0.78"/>
    <circle cx="74" cy="28" r="6" fill="#FFF7ED" opacity="0.82"/>
    <circle cx="74" cy="28" r="3.2" fill="#FFFFFF"/>
    <path d="M72 28H76" stroke="#F59E0B" stroke-width="2" stroke-linecap="round"/>
    <path d="M74 26V30" stroke="#F59E0B" stroke-width="2" stroke-linecap="round"/>
  </g>
</svg>
