<svg width="128" height="128" viewBox="0 0 128 128" fill="none" xmlns="http://www.w3.org/2000/svg">
  <defs>
    <linearGradient id="pyqSheet" x1="31" y1="12" x2="94" y2="112" gradientUnits="userSpaceOnUse">
      <stop stop-color="#FFFFFF"/>
      <stop offset="0.45" stop-color="#F3F8FF"/>
      <stop offset="1" stop-color="#CADCFF"/>
    </linearGradient>
    <linearGradient id="pyqSheetEdge" x1="26" y1="30" x2="101" y2="109" gradientUnits="userSpaceOnUse">
      <stop stop-color="#EAF2FF"/>
      <stop offset="1" stop-color="#9EB9EA"/>
    </linearGradient>
    <linearGradient id="pyqFold" x1="76" y1="16" x2="103" y2="45" gradientUnits="userSpaceOnUse">
      <stop stop-color="#DCE9FF"/>
      <stop offset="0.48" stop-color="#BFD3F6"/>
      <stop offset="1" stop-color="#94B4EA"/>
    </linearGradient>
    <linearGradient id="pyqBadge" x1="16" y1="41" x2="61" y2="80" gradientUnits="userSpaceOnUse">
      <stop stop-color="#FF5D66"/>
      <stop offset="0.52" stop-color="#FF3448"/>
      <stop offset="1" stop-color="#C91E37"/>
    </linearGradient>
    <linearGradient id="pyqBadgeDepth" x1="17" y1="45" x2="59" y2="75" gradientUnits="userSpaceOnUse">
      <stop stop-color="#FF7580" stop-opacity="0.52"/>
      <stop offset="1" stop-color="#991B1B" stop-opacity="0.26"/>
    </linearGradient>
    <linearGradient id="pyqLens" x1="75" y1="70" x2="113" y2="112" gradientUnits="userSpaceOnUse">
      <stop stop-color="#7857FF"/>
      <stop offset="0.48" stop-color="#4F46E5"/>
      <stop offset="1" stop-color="#1D4ED8"/>
    </linearGradient>
    <linearGradient id="pyqHandle" x1="98" y1="98" x2="119" y2="119" gradientUnits="userSpaceOnUse">
      <stop stop-color="#5546E8"/>
      <stop offset="1" stop-color="#173EB4"/>
    </linearGradient>
    <filter id="pyqDocumentShadow" x="9" y="5" width="108" height="118" filterUnits="userSpaceOnUse" color-interpolation-filters="sRGB">
      <feDropShadow dx="0" dy="15" stdDeviation="8" flood-color="#0F172A" flood-opacity="0.28"/>
      <feDropShadow dx="-3" dy="-2" stdDeviation="3" flood-color="#FFFFFF" flood-opacity="0.50"/>
      <feDropShadow dx="0" dy="4" stdDeviation="2" flood-color="#2563EB" flood-opacity="0.14"/>
    </filter>
    <filter id="pyqBadgeShadow" x="8" y="36" width="61" height="48" filterUnits="userSpaceOnUse" color-interpolation-filters="sRGB">
      <feDropShadow dx="0" dy="6" stdDeviation="4" flood-color="#991B1B" flood-opacity="0.30"/>
    </filter>
    <filter id="pyqLensShadow" x="66" y="66" width="59" height="61" filterUnits="userSpaceOnUse" color-interpolation-filters="sRGB">
      <feDropShadow dx="0" dy="9" stdDeviation="5" flood-color="#1E1B4B" flood-opacity="0.32"/>
    </filter>
    <clipPath id="pyqSheetClip">
      <path d="M37 15H77.5L101 38.5V96C101 105.4 93.4 113 84 113H37C27.6 113 20 105.4 20 96V32C20 22.6 27.6 15 37 15Z"/>
    </clipPath>
  </defs>

  <ellipse cx="62" cy="116" rx="39" ry="8" fill="#0F172A" opacity="0.10"/>

  <g filter="url(#pyqDocumentShadow)">
    <path d="M37 15H77.5L101 38.5V96C101 105.4 93.4 113 84 113H37C27.6 113 20 105.4 20 96V32C20 22.6 27.6 15 37 15Z" fill="url(#pyqSheetEdge)" opacity="0.38" transform="translate(2 2)"/>
    <path d="M37 15H77.5L101 38.5V96C101 105.4 93.4 113 84 113H37C27.6 113 20 105.4 20 96V32C20 22.6 27.6 15 37 15Z" fill="url(#pyqSheet)"/>
    <path d="M37 15H77.5L101 38.5V96C101 105.4 93.4 113 84 113H37C27.6 113 20 105.4 20 96V32C20 22.6 27.6 15 37 15Z" stroke="#B7CBF1" stroke-opacity="0.62" stroke-width="1.3"/>
    <g clip-path="url(#pyqSheetClip)">
      <path d="M96 46V98C96 103 92 107 87 107H78C85 102.4 88.4 95.4 88.4 86.5V42.5L96 46Z" fill="#93AEE4" opacity="0.10"/>
      <path d="M80 15V33C80 38.5 84.5 43 90 43H101L80 15Z" fill="url(#pyqFold)"/>
      <path d="M80 15V34.5C80 39.2 83.8 43 88.5 43H101" stroke="#8AAAE3" stroke-opacity="0.38" stroke-width="1.6"/>
      <path d="M84 22L96 38H89C86.2 38 84 35.8 84 33V22Z" fill="#F3F7FF" opacity="0.20"/>
    </g>
  </g>

  <g filter="url(#pyqBadgeShadow)">
    <rect x="13" y="43" width="49" height="32" rx="8" fill="url(#pyqBadge)"/>
    <rect x="13" y="58" width="49" height="17" rx="8" fill="#9F1239" opacity="0.14"/>
    <rect x="16" y="46" width="43" height="26" rx="6" fill="url(#pyqBadgeDepth)"/>
    <text x="21" y="65.5" fill="white" font-family="Inter, Arial, sans-serif" font-size="15.5" font-weight="900" letter-spacing="-0.5">PYQ</text>
  </g>

  <path d="M40 84H73" stroke="#5D8DDD" stroke-width="4.4" stroke-linecap="round"/>
  <path d="M40 95H66" stroke="#8EADEA" stroke-width="4.4" stroke-linecap="round"/>

  <g filter="url(#pyqLensShadow)">
    <path d="M99.6 99.8L114.3 114.5" stroke="url(#pyqHandle)" stroke-width="8.4" stroke-linecap="round"/>
    <circle cx="88" cy="86.5" r="19" fill="url(#pyqLens)"/>
    <circle cx="88" cy="86.5" r="12.3" fill="#EEF6FF" opacity="0.18"/>
    <path d="M88 76.5V87L96 91.6" stroke="#F1F8FF" stroke-width="4.8" stroke-linecap="round" stroke-linejoin="round"/>
    <circle cx="88" cy="86.5" r="18" stroke="#A9C8FF" stroke-opacity="0.22" stroke-width="2"/>
  </g>
</svg>
