<svg width="128" height="128" viewBox="0 0 128 128" fill="none" xmlns="http://www.w3.org/2000/svg">
  <defs>
    <linearGradient id="paper" x1="32" y1="16" x2="96" y2="108" gradientUnits="userSpaceOnUse">
      <stop stop-color="#FFFFFF"/>
      <stop offset="1" stop-color="#DCEBFF"/>
    </linearGradient>
    <linearGradient id="pen" x1="88" y1="55" x2="114" y2="91" gradientUnits="userSpaceOnUse">
      <stop stop-color="#7C3AED"/>
      <stop offset="1" stop-color="#4338CA"/>
    </linearGradient>
    <filter id="shadow" x="12" y="8" width="112" height="112" filterUnits="userSpaceOnUse" color-interpolation-filters="sRGB">
      <feDropShadow dx="0" dy="10" stdDeviation="7" flood-color="#111827" flood-opacity="0.22"/>
    </filter>
  </defs>
  <g filter="url(#shadow)">
    <path d="M34 16H80L101 37V101C101 108.2 95.2 114 88 114H34C26.8 114 21 108.2 21 101V29C21 21.8 26.8 16 34 16Z" fill="url(#paper)"/>
    <path d="M80 16V32C80 36.4 83.6 40 88 40H101" fill="#C7D7F4"/>
    <path d="M40 48H72" stroke="#2563EB" stroke-width="5" stroke-linecap="round"/>
    <path d="M40 65H72" stroke="#60A5FA" stroke-width="4" stroke-linecap="round"/>
    <path d="M40 82H67" stroke="#60A5FA" stroke-width="4" stroke-linecap="round"/>
    <path d="M30 64L37 71L50 56" stroke="#10B981" stroke-width="6" stroke-linecap="round" stroke-linejoin="round"/>
    <path d="M30 82L37 89L50 74" stroke="#10B981" stroke-width="6" stroke-linecap="round" stroke-linejoin="round"/>
    <path d="M87 78L107 58C111 54 118 61 114 65L94 85L82 90L87 78Z" fill="url(#pen)"/>
    <path d="M82 90L78 99L87 95" fill="#1F2937"/>
  </g>
</svg>
