<svg width="128" height="128" viewBox="0 0 128 128" fill="none" xmlns="http://www.w3.org/2000/svg">
  <defs>
    <linearGradient id="glass" x1="44" y1="18" x2="91" y2="105" gradientUnits="userSpaceOnUse">
      <stop stop-color="#FFFFFF"/>
      <stop offset="1" stop-color="#DCEBFF"/>
    </linearGradient>
    <linearGradient id="liquid" x1="33" y1="72" x2="98" y2="108" gradientUnits="userSpaceOnUse">
      <stop stop-color="#22D3EE"/>
      <stop offset="1" stop-color="#2563EB"/>
    </linearGradient>
    <filter id="shadow" x="12" y="8" width="104" height="112" filterUnits="userSpaceOnUse" color-interpolation-filters="sRGB">
      <feDropShadow dx="0" dy="10" stdDeviation="7" flood-color="#111827" flood-opacity="0.22"/>
    </filter>
  </defs>
  <g filter="url(#shadow)">
    <path d="M51 18H77V30L70 43V62L99 104C102 108 99 114 94 114H34C29 114 26 108 29 104L58 62V43L51 30V18Z" fill="url(#glass)"/>
    <path d="M42 88C52 76 71 82 85 72L99 104C102 108 99 114 94 114H34C29 114 26 108 29 104L42 88Z" fill="url(#liquid)"/>
    <path d="M48 18H80" stroke="#1E40AF" stroke-width="6" stroke-linecap="round"/>
    <circle cx="47" cy="93" r="5" fill="#A5F3FC"/>
    <circle cx="67" cy="98" r="4" fill="#A5F3FC"/>
    <circle cx="80" cy="88" r="3" fill="#A5F3FC"/>
  </g>
</svg>
