<svg width="128" height="128" viewBox="0 0 96 96" fill="none" xmlns="http://www.w3.org/2000/svg">
  <defs>
    <linearGradient id="sparkleGradient" x1="22" y1="14" x2="80" y2="86" gradientUnits="userSpaceOnUse">
      <stop stop-color="#FDE68A"/>
      <stop offset="0.38" stop-color="#FB7185"/>
      <stop offset="0.72" stop-color="#8B5CF6"/>
      <stop offset="1" stop-color="#22C55E"/>
    </linearGradient>
    <radialGradient id="sparkleGlow" cx="0" cy="0" r="1" gradientUnits="userSpaceOnUse" gradientTransform="translate(48 48) rotate(90) scale(30)">
      <stop stop-color="#FFFFFF" stop-opacity="0.86"/>
      <stop offset="1" stop-color="#FFFFFF" stop-opacity="0"/>
    </radialGradient>
    <filter id="sparkleShadow" x="-25%" y="-20%" width="150%" height="150%" filterUnits="userSpaceOnUse" color-interpolation-filters="sRGB">
      <feDropShadow dx="0" dy="9" stdDeviation="6" flood-color="#020617" flood-opacity="0.24"/>
    </filter>
  </defs>

  <g filter="url(#sparkleShadow)">
    <circle cx="48" cy="48" r="30" fill="url(#sparkleGlow)"/>
    <path d="M48 20L51.6 35.4L67 40L51.6 44.6L48 60L44.4 44.6L29 40L44.4 35.4L48 20Z" fill="url(#sparkleGradient)"/>
    <path d="M67 31L69.2 37.8L76 40L69.2 42.2L67 49L64.8 42.2L58 40L64.8 37.8L67 31Z" fill="url(#sparkleGradient)" opacity="0.82"/>
    <path d="M29 56L31.2 62.8L38 65L31.2 67.2L29 74L26.8 67.2L20 65L26.8 62.8L29 56Z" fill="url(#sparkleGradient)" opacity="0.7"/>
  </g>
</svg>
