<svg xmlns="http://www.w3.org/2000/svg" width="128" height="128" viewBox="0 0 128 128" role="img" aria-label="Bio Research icon">

  <defs>
    <linearGradient id="exams-3-main" x1="20" y1="14" x2="108" y2="114" gradientUnits="userSpaceOnUse">
      <stop stop-color="#38bdf8"/>
      <stop offset=".52" stop-color="#8b5cf6"/>
      <stop offset="1" stop-color="#22c55e"/>
    </linearGradient>
    <linearGradient id="exams-3-warm" x1="24" y1="26" x2="104" y2="104" gradientUnits="userSpaceOnUse">
      <stop stop-color="#fef3c7"/>
      <stop offset=".58" stop-color="#f59e0b"/>
      <stop offset="1" stop-color="#f97316"/>
    </linearGradient>
    <filter id="exams-3-shadow" x="-24" y="-20" width="176" height="176" color-interpolation-filters="sRGB">
      <feDropShadow dx="0" dy="9" stdDeviation="8" flood-color="#0f172a" flood-opacity=".24"/>
    </filter>
  </defs>

  <ellipse cx="64" cy="104" rx="34" ry="7" fill="#0f172a" opacity=".16"/>
  <path d="M35 109c9 5 49 5 58 0" fill="none" stroke="url(#exams-3-main)" stroke-width="5.5" stroke-linecap="round" opacity=".78"/>

        <g filter="url(#exams-3-shadow)">
          <path d="M54 25h20M60 25v27L35 93c-4 7 1 16 9 16h40c8 0 13-9 9-16L68 52V25" fill="none" stroke="url(#exams-3-main)" stroke-width="8" stroke-linecap="round" stroke-linejoin="round"/>
          <path d="M43 90h42l-11-19H54L43 90z" fill="url(#exams-3-main)" opacity=".82"/>
          <circle cx="54" cy="80" r="4" fill="#f8fafc"/><circle cx="72" cy="85" r="3" fill="#f8fafc"/>
        </g>
</svg>
