<svg xmlns="http://www.w3.org/2000/svg" width="128" height="128" viewBox="0 0 128 128" role="img" aria-label="Coast Guard icon">

  <defs>
    <linearGradient id="exams-5-main" x1="20" y1="14" x2="108" y2="114" gradientUnits="userSpaceOnUse">
      <stop stop-color="#38bdf8"/>
      <stop offset=".52" stop-color="#8b5cf6"/>
      <stop offset="1" stop-color="#22c55e"/>
    </linearGradient>
    <linearGradient id="exams-5-warm" x1="24" y1="26" x2="104" y2="104" gradientUnits="userSpaceOnUse">
      <stop stop-color="#fef3c7"/>
      <stop offset=".58" stop-color="#f59e0b"/>
      <stop offset="1" stop-color="#f97316"/>
    </linearGradient>
    <filter id="exams-5-shadow" x="-24" y="-20" width="176" height="176" color-interpolation-filters="sRGB">
      <feDropShadow dx="0" dy="9" stdDeviation="8" flood-color="#0f172a" flood-opacity=".24"/>
    </filter>
  </defs>

  <ellipse cx="64" cy="104" rx="34" ry="7" fill="#0f172a" opacity=".16"/>
  <path d="M35 109c9 5 49 5 58 0" fill="none" stroke="url(#exams-5-main)" stroke-width="5.5" stroke-linecap="round" opacity=".78"/>

        <g filter="url(#exams-5-shadow)">
          <path d="M64 22l34 12v25c0 23-14 38-34 49-20-11-34-26-34-49V34l34-12z" fill="url(#exams-5-main)"/>
          <path d="M64 34v62c14-8 24-19 24-35V42L64 34z" fill="#e0f2fe" opacity=".72"/>
          <path d="M48 62l11 11 24-27" fill="none" stroke="#f8fafc" stroke-width="8" stroke-linecap="round" stroke-linejoin="round"/>
        </g>
</svg>
