<svg xmlns="http://www.w3.org/2000/svg" width="128" height="128" viewBox="0 0 128 128" role="img" aria-label="Nda icon">

  <defs>
    <linearGradient id="exams-18-main" x1="20" y1="14" x2="108" y2="114" gradientUnits="userSpaceOnUse">
      <stop stop-color="#38bdf8"/>
      <stop offset=".52" stop-color="#8b5cf6"/>
      <stop offset="1" stop-color="#22c55e"/>
    </linearGradient>
    <linearGradient id="exams-18-warm" x1="24" y1="26" x2="104" y2="104" gradientUnits="userSpaceOnUse">
      <stop stop-color="#fef3c7"/>
      <stop offset=".58" stop-color="#f59e0b"/>
      <stop offset="1" stop-color="#f97316"/>
    </linearGradient>
    <filter id="exams-18-shadow" x="-24" y="-20" width="176" height="176" color-interpolation-filters="sRGB">
      <feDropShadow dx="0" dy="9" stdDeviation="8" flood-color="#0f172a" flood-opacity=".24"/>
    </filter>
  </defs>

  <ellipse cx="64" cy="104" rx="34" ry="7" fill="#0f172a" opacity=".16"/>
  <path d="M35 109c9 5 49 5 58 0" fill="none" stroke="url(#exams-18-main)" stroke-width="5.5" stroke-linecap="round" opacity=".78"/>

        <g filter="url(#exams-18-shadow)">
          <path d="M43 23h20l7 25H52L43 23zM85 23H65l-7 25h18l9-25z" fill="url(#exams-18-main)"/>
          <circle cx="64" cy="70" r="29" fill="url(#exams-18-warm)"/>
          <path d="M64 55l6 12 13 2-10 9 3 13-12-7-12 7 3-13-10-9 13-2 6-12z" fill="#f8fafc"/>
        </g>
</svg>
