<svg xmlns="http://www.w3.org/2000/svg" width="128" height="128" viewBox="0 0 128 128" role="img" aria-label="Merchant Navy icon">

  <defs>
    <linearGradient id="entrance-11-main" x1="20" y1="14" x2="108" y2="114" gradientUnits="userSpaceOnUse">
      <stop stop-color="#34d399"/>
      <stop offset=".52" stop-color="#06b6d4"/>
      <stop offset="1" stop-color="#8b5cf6"/>
    </linearGradient>
    <linearGradient id="entrance-11-warm" x1="24" y1="26" x2="104" y2="104" gradientUnits="userSpaceOnUse">
      <stop stop-color="#fef3c7"/>
      <stop offset=".58" stop-color="#f59e0b"/>
      <stop offset="1" stop-color="#f97316"/>
    </linearGradient>
    <filter id="entrance-11-shadow" x="-24" y="-20" width="176" height="176" color-interpolation-filters="sRGB">
      <feDropShadow dx="0" dy="9" stdDeviation="8" flood-color="#0f172a" flood-opacity=".24"/>
    </filter>
  </defs>

  <ellipse cx="64" cy="104" rx="34" ry="7" fill="#0f172a" opacity=".16"/>
  <path d="M35 109c9 5 49 5 58 0" fill="none" stroke="url(#entrance-11-main)" stroke-width="5.5" stroke-linecap="round" opacity=".78"/>

        <g filter="url(#entrance-11-shadow)">
          <path d="M31 84c8-27 32-50 58-56 4-1 8 3 7 7-6 26-29 50-56 58-6 2-12-3-9-9z" fill="url(#entrance-11-main)"/>
          <path d="M48 78l17-17M60 89l28-28" stroke="#f8fafc" stroke-width="6" stroke-linecap="round"/>
          <circle cx="86" cy="35" r="7" fill="#f8fafc"/>
        </g>
</svg>
