<svg xmlns="http://www.w3.org/2000/svg" width="128" height="128" viewBox="0 0 128 128" role="img" aria-label="Abroad icon">

  <defs>
    <linearGradient id="categories-0-main" x1="20" y1="14" x2="108" y2="114" gradientUnits="userSpaceOnUse">
      <stop stop-color="#22d3ee"/>
      <stop offset=".52" stop-color="#6366f1"/>
      <stop offset="1" stop-color="#14b8a6"/>
    </linearGradient>
    <linearGradient id="categories-0-warm" x1="24" y1="26" x2="104" y2="104" gradientUnits="userSpaceOnUse">
      <stop stop-color="#fef3c7"/>
      <stop offset=".58" stop-color="#f59e0b"/>
      <stop offset="1" stop-color="#f97316"/>
    </linearGradient>
    <filter id="categories-0-shadow" x="-24" y="-20" width="176" height="176" color-interpolation-filters="sRGB">
      <feDropShadow dx="0" dy="9" stdDeviation="8" flood-color="#0f172a" flood-opacity=".24"/>
    </filter>
  </defs>

  <ellipse cx="64" cy="104" rx="34" ry="7" fill="#0f172a" opacity=".16"/>
  <path d="M35 109c9 5 49 5 58 0" fill="none" stroke="url(#categories-0-main)" stroke-width="5.5" stroke-linecap="round" opacity=".78"/>

        <g filter="url(#categories-0-shadow)">
          <circle cx="64" cy="61" r="36" fill="url(#categories-0-main)"/>
          <path d="M30 61h68M64 25c11 12 16 24 16 36S75 85 64 97M64 25C53 37 48 49 48 61s5 24 16 36" fill="none" stroke="#f8fafc" stroke-width="5" stroke-linecap="round" opacity=".9"/>
          <path d="M40 38c14 8 34 8 48 0M40 84c14-8 34-8 48 0" fill="none" stroke="#f8fafc" stroke-width="4" stroke-linecap="round" opacity=".75"/>
        </g>
</svg>
